<mxfile host="app.diagrams.net" modified="2024-01-13T09:37:40.558Z" agent="Mozilla/5.0 (Windows NT 10.0; Win64; x64) AppleWebKit/537.36 (KHTML, like Gecko) Chrome/118.0.0.0 YaBrowser/23.11.0.0 Safari/537.36" etag="XCBuCgC_QE-DFhnCc8r8" version="22.1.18" type="device">
  <diagram name="Страница — 1" id="x_wm2Z9gaBZjXk-lj6q3">
    <mxGraphModel dx="2013" dy="909" grid="1" gridSize="10" guides="1" tooltips="1" connect="1" arrows="1" fold="1" page="1" pageScale="1" pageWidth="827" pageHeight="1169" math="0" shadow="0">
      <root>
        <mxCell id="0" />
        <mxCell id="1" parent="0" />
        <mxCell id="zoqwROZlDlaIK0jrbd3C-5" style="edgeStyle=orthogonalEdgeStyle;rounded=0;orthogonalLoop=1;jettySize=auto;html=1;" edge="1" parent="1" source="zoqwROZlDlaIK0jrbd3C-2" target="zoqwROZlDlaIK0jrbd3C-4">
          <mxGeometry relative="1" as="geometry" />
        </mxCell>
        <mxCell id="zoqwROZlDlaIK0jrbd3C-2" value="" style="ellipse;whiteSpace=wrap;html=1;aspect=fixed;" vertex="1" parent="1">
          <mxGeometry x="235" y="100" width="30" height="30" as="geometry" />
        </mxCell>
        <mxCell id="zoqwROZlDlaIK0jrbd3C-3" value="Начало" style="text;html=1;strokeColor=none;fillColor=none;align=center;verticalAlign=middle;whiteSpace=wrap;rounded=0;" vertex="1" parent="1">
          <mxGeometry x="220" y="70" width="60" height="30" as="geometry" />
        </mxCell>
        <mxCell id="zoqwROZlDlaIK0jrbd3C-7" style="edgeStyle=orthogonalEdgeStyle;rounded=0;orthogonalLoop=1;jettySize=auto;html=1;entryX=0.5;entryY=0;entryDx=0;entryDy=0;" edge="1" parent="1" source="zoqwROZlDlaIK0jrbd3C-4" target="zoqwROZlDlaIK0jrbd3C-6">
          <mxGeometry relative="1" as="geometry" />
        </mxCell>
        <mxCell id="zoqwROZlDlaIK0jrbd3C-4" value="Без монеты" style="rounded=1;whiteSpace=wrap;html=1;" vertex="1" parent="1">
          <mxGeometry x="190" y="170" width="120" height="60" as="geometry" />
        </mxCell>
        <mxCell id="zoqwROZlDlaIK0jrbd3C-8" style="edgeStyle=orthogonalEdgeStyle;rounded=0;orthogonalLoop=1;jettySize=auto;html=1;entryX=0;entryY=0.5;entryDx=0;entryDy=0;" edge="1" parent="1" source="zoqwROZlDlaIK0jrbd3C-6" target="zoqwROZlDlaIK0jrbd3C-4">
          <mxGeometry relative="1" as="geometry">
            <Array as="points">
              <mxPoint x="150" y="315" />
              <mxPoint x="150" y="200" />
            </Array>
          </mxGeometry>
        </mxCell>
        <mxCell id="zoqwROZlDlaIK0jrbd3C-9" value="Нет" style="edgeLabel;html=1;align=center;verticalAlign=middle;resizable=0;points=[];" vertex="1" connectable="0" parent="zoqwROZlDlaIK0jrbd3C-8">
          <mxGeometry x="0.2099" relative="1" as="geometry">
            <mxPoint as="offset" />
          </mxGeometry>
        </mxCell>
        <mxCell id="zoqwROZlDlaIK0jrbd3C-12" style="edgeStyle=orthogonalEdgeStyle;rounded=0;orthogonalLoop=1;jettySize=auto;html=1;" edge="1" parent="1" source="zoqwROZlDlaIK0jrbd3C-6" target="zoqwROZlDlaIK0jrbd3C-11">
          <mxGeometry relative="1" as="geometry" />
        </mxCell>
        <mxCell id="zoqwROZlDlaIK0jrbd3C-13" value="Да&lt;br&gt;" style="edgeLabel;html=1;align=center;verticalAlign=middle;resizable=0;points=[];" vertex="1" connectable="0" parent="zoqwROZlDlaIK0jrbd3C-12">
          <mxGeometry x="-0.4873" y="3" relative="1" as="geometry">
            <mxPoint as="offset" />
          </mxGeometry>
        </mxCell>
        <mxCell id="zoqwROZlDlaIK0jrbd3C-6" value="Вставить монету?" style="rhombus;whiteSpace=wrap;html=1;" vertex="1" parent="1">
          <mxGeometry x="215" y="280" width="70" height="70" as="geometry" />
        </mxCell>
        <mxCell id="zoqwROZlDlaIK0jrbd3C-25" style="edgeStyle=orthogonalEdgeStyle;rounded=0;orthogonalLoop=1;jettySize=auto;html=1;entryX=0.5;entryY=0;entryDx=0;entryDy=0;" edge="1" parent="1" source="zoqwROZlDlaIK0jrbd3C-11" target="zoqwROZlDlaIK0jrbd3C-14">
          <mxGeometry relative="1" as="geometry" />
        </mxCell>
        <mxCell id="zoqwROZlDlaIK0jrbd3C-11" value="Монета вставлена" style="rounded=1;whiteSpace=wrap;html=1;" vertex="1" parent="1">
          <mxGeometry x="190" y="400" width="120" height="60" as="geometry" />
        </mxCell>
        <mxCell id="zoqwROZlDlaIK0jrbd3C-15" style="edgeStyle=orthogonalEdgeStyle;rounded=0;orthogonalLoop=1;jettySize=auto;html=1;entryX=1;entryY=0.5;entryDx=0;entryDy=0;" edge="1" parent="1" source="zoqwROZlDlaIK0jrbd3C-14" target="zoqwROZlDlaIK0jrbd3C-4">
          <mxGeometry relative="1" as="geometry">
            <Array as="points">
              <mxPoint x="360" y="535" />
              <mxPoint x="360" y="200" />
            </Array>
          </mxGeometry>
        </mxCell>
        <mxCell id="zoqwROZlDlaIK0jrbd3C-16" value="Да" style="edgeLabel;html=1;align=center;verticalAlign=middle;resizable=0;points=[];" vertex="1" connectable="0" parent="zoqwROZlDlaIK0jrbd3C-15">
          <mxGeometry x="-0.0569" y="-2" relative="1" as="geometry">
            <mxPoint as="offset" />
          </mxGeometry>
        </mxCell>
        <mxCell id="zoqwROZlDlaIK0jrbd3C-17" style="edgeStyle=orthogonalEdgeStyle;rounded=0;orthogonalLoop=1;jettySize=auto;html=1;" edge="1" parent="1" source="zoqwROZlDlaIK0jrbd3C-14">
          <mxGeometry relative="1" as="geometry">
            <mxPoint x="250" y="620" as="targetPoint" />
          </mxGeometry>
        </mxCell>
        <mxCell id="zoqwROZlDlaIK0jrbd3C-19" value="Нет" style="edgeLabel;html=1;align=center;verticalAlign=middle;resizable=0;points=[];" vertex="1" connectable="0" parent="zoqwROZlDlaIK0jrbd3C-17">
          <mxGeometry x="-0.1612" y="-1" relative="1" as="geometry">
            <mxPoint as="offset" />
          </mxGeometry>
        </mxCell>
        <mxCell id="zoqwROZlDlaIK0jrbd3C-14" value="Вернуть монету?" style="rhombus;whiteSpace=wrap;html=1;" vertex="1" parent="1">
          <mxGeometry x="215" y="500" width="70" height="70" as="geometry" />
        </mxCell>
        <mxCell id="zoqwROZlDlaIK0jrbd3C-21" style="edgeStyle=orthogonalEdgeStyle;rounded=0;orthogonalLoop=1;jettySize=auto;html=1;" edge="1" parent="1" source="zoqwROZlDlaIK0jrbd3C-18" target="zoqwROZlDlaIK0jrbd3C-20">
          <mxGeometry relative="1" as="geometry" />
        </mxCell>
        <mxCell id="zoqwROZlDlaIK0jrbd3C-18" value="Повернуть рычаг" style="rounded=1;whiteSpace=wrap;html=1;" vertex="1" parent="1">
          <mxGeometry x="190" y="620" width="120" height="60" as="geometry" />
        </mxCell>
        <mxCell id="zoqwROZlDlaIK0jrbd3C-26" style="edgeStyle=orthogonalEdgeStyle;rounded=0;orthogonalLoop=1;jettySize=auto;html=1;entryX=0.5;entryY=0;entryDx=0;entryDy=0;" edge="1" parent="1" source="zoqwROZlDlaIK0jrbd3C-20" target="zoqwROZlDlaIK0jrbd3C-22">
          <mxGeometry relative="1" as="geometry" />
        </mxCell>
        <mxCell id="zoqwROZlDlaIK0jrbd3C-27" style="edgeStyle=orthogonalEdgeStyle;rounded=0;orthogonalLoop=1;jettySize=auto;html=1;entryX=0.5;entryY=0;entryDx=0;entryDy=0;" edge="1" parent="1" source="zoqwROZlDlaIK0jrbd3C-20" target="zoqwROZlDlaIK0jrbd3C-23">
          <mxGeometry relative="1" as="geometry">
            <Array as="points">
              <mxPoint x="250" y="800" />
              <mxPoint x="100" y="800" />
            </Array>
          </mxGeometry>
        </mxCell>
        <mxCell id="zoqwROZlDlaIK0jrbd3C-28" style="edgeStyle=orthogonalEdgeStyle;rounded=0;orthogonalLoop=1;jettySize=auto;html=1;entryX=0.5;entryY=0;entryDx=0;entryDy=0;" edge="1" parent="1" source="zoqwROZlDlaIK0jrbd3C-20" target="zoqwROZlDlaIK0jrbd3C-24">
          <mxGeometry relative="1" as="geometry">
            <Array as="points">
              <mxPoint x="250" y="800" />
              <mxPoint x="400" y="800" />
            </Array>
          </mxGeometry>
        </mxCell>
        <mxCell id="zoqwROZlDlaIK0jrbd3C-20" value="Повернуть рычаг" style="rounded=1;whiteSpace=wrap;html=1;" vertex="1" parent="1">
          <mxGeometry x="190" y="720" width="120" height="60" as="geometry" />
        </mxCell>
        <mxCell id="zoqwROZlDlaIK0jrbd3C-32" style="edgeStyle=orthogonalEdgeStyle;rounded=0;orthogonalLoop=1;jettySize=auto;html=1;entryX=0.5;entryY=0;entryDx=0;entryDy=0;" edge="1" parent="1" source="zoqwROZlDlaIK0jrbd3C-22" target="zoqwROZlDlaIK0jrbd3C-29">
          <mxGeometry relative="1" as="geometry" />
        </mxCell>
        <mxCell id="zoqwROZlDlaIK0jrbd3C-22" value="Получить игрушку" style="rounded=1;whiteSpace=wrap;html=1;" vertex="1" parent="1">
          <mxGeometry x="190" y="830" width="120" height="60" as="geometry" />
        </mxCell>
        <mxCell id="zoqwROZlDlaIK0jrbd3C-31" style="edgeStyle=orthogonalEdgeStyle;rounded=0;orthogonalLoop=1;jettySize=auto;html=1;entryX=0.5;entryY=0;entryDx=0;entryDy=0;" edge="1" parent="1" source="zoqwROZlDlaIK0jrbd3C-23" target="zoqwROZlDlaIK0jrbd3C-29">
          <mxGeometry relative="1" as="geometry">
            <Array as="points">
              <mxPoint x="100" y="910" />
              <mxPoint x="250" y="910" />
            </Array>
          </mxGeometry>
        </mxCell>
        <mxCell id="zoqwROZlDlaIK0jrbd3C-23" value="Получить жвачку" style="rounded=1;whiteSpace=wrap;html=1;" vertex="1" parent="1">
          <mxGeometry x="40" y="830" width="120" height="60" as="geometry" />
        </mxCell>
        <mxCell id="zoqwROZlDlaIK0jrbd3C-33" style="edgeStyle=orthogonalEdgeStyle;rounded=0;orthogonalLoop=1;jettySize=auto;html=1;" edge="1" parent="1" source="zoqwROZlDlaIK0jrbd3C-24">
          <mxGeometry relative="1" as="geometry">
            <mxPoint x="250" y="940" as="targetPoint" />
            <Array as="points">
              <mxPoint x="400" y="910" />
              <mxPoint x="250" y="910" />
            </Array>
          </mxGeometry>
        </mxCell>
        <mxCell id="zoqwROZlDlaIK0jrbd3C-24" value="Получить два приза" style="rounded=1;whiteSpace=wrap;html=1;" vertex="1" parent="1">
          <mxGeometry x="340" y="830" width="120" height="60" as="geometry" />
        </mxCell>
        <mxCell id="zoqwROZlDlaIK0jrbd3C-29" value="" style="ellipse;whiteSpace=wrap;html=1;aspect=fixed;" vertex="1" parent="1">
          <mxGeometry x="235" y="940" width="30" height="30" as="geometry" />
        </mxCell>
        <mxCell id="zoqwROZlDlaIK0jrbd3C-30" value="Конец" style="text;html=1;strokeColor=none;fillColor=none;align=center;verticalAlign=middle;whiteSpace=wrap;rounded=0;" vertex="1" parent="1">
          <mxGeometry x="220" y="970" width="60" height="30" as="geometry" />
        </mxCell>
      </root>
    </mxGraphModel>
  </diagram>
</mxfile>
